<?xml version="1.0" encoding="iso-8859-1"?>
<!-- Uploaded to: SVG Repo, www.svgrepo.com, Generator: SVG Repo Mixer Tools -->
<svg version="1.1" id="Capa_1" xmlns="http://www.w3.org/2000/svg" xmlns:xlink="http://www.w3.org/1999/xlink" 
	 viewBox="0 0 353 353" xml:space="preserve">
<g id="XMLID_1043_">
	<path id="XMLID_1044_" style="fill:#6DA8D6;" d="M237,166.5v61c0,33.36-27.141,60.5-60.5,60.5S116,260.86,116,227.5v-117
		c0-33.36,27.141-60.5,60.5-60.5c28.54,0,52.511,19.871,58.847,46.5h50.77C279.215,42.156,232.688,0,176.5,0
		C115.57,0,66,49.57,66,110.5v117C66,288.43,115.57,338,176.5,338S287,288.43,287,227.5v-61H237z"/>
	<g id="XMLID_1045_">
		<path id="XMLID_1048_" style="fill:#2974A8;" d="M235.347,96.5h50.77C279.215,42.156,232.688,0,176.5,0v50
			C205.04,50,229.011,69.871,235.347,96.5z"/>
		<path id="XMLID_1051_" style="fill:#13425A;" d="M237,166.5v61c0,33.36-27.141,60.5-60.5,60.5v50c60.93,0,110.5-49.57,110.5-110.5
			v-61H237z"/>
	</g>
	<rect id="XMLID_42_" x="41.5" y="149.357" style="fill:#F9E375;" width="270" height="203.643"/>
	<rect id="XMLID_1055_" x="176.5" y="149.357" style="fill:#F5D361;" width="135" height="203.643"/>
	<polygon id="XMLID_1056_" style="fill:#6DA8D6;" points="130.83,244.023 115.791,246.015 125.423,233.341 110.746,225.024 
		104.481,239.403 98.123,225.149 83.347,233.627 92.808,245.907 78.333,244.036 78.333,260.851 92.882,258.984 83.434,271.117 
		97.498,280 104.276,265.298 110.475,279.764 125.632,271.104 115.985,259.045 130.83,260.815 	"/>
	<polygon id="XMLID_1057_" style="fill:#6DA8D6;" points="202.749,244.023 187.709,246.015 197.341,233.341 182.665,225.024 
		176.399,239.403 170.042,225.149 155.265,233.627 164.726,245.907 150.251,244.036 150.251,260.851 164.801,258.984 
		155.352,271.117 169.417,280 176.194,265.298 182.394,279.764 197.55,271.104 187.903,259.045 202.749,260.815 	"/>
	<polygon id="XMLID_1060_" style="fill:#2974A8;" points="274.667,244.023 259.627,246.015 269.26,233.341 254.583,225.024 
		248.318,239.403 241.96,225.149 227.184,233.627 236.645,245.907 222.17,244.036 222.17,260.851 236.719,258.984 227.271,271.117 
		241.335,280 248.112,265.298 254.312,279.764 269.469,271.104 259.822,259.045 274.667,260.815 	"/>
	<polygon id="XMLID_1063_" style="fill:#2974A8;" points="202.749,244.023 187.709,246.015 197.342,233.341 182.665,225.024 
		176.5,239.173 176.5,266.012 182.394,279.764 197.55,271.104 187.903,259.045 202.749,260.815 	"/>
</g>
</svg>