<svg width="518" height="106" viewBox="0 0 518 106" fill="none" xmlns="http://www.w3.org/2000/svg">
<g clip-path="url(#clip0_1_579)">
<path d="M144 65.4786V79.3242H153.668V66.0834C153.668 64.7982 154.172 63.5562 155.085 62.649C155.988 61.7418 157.223 61.2234 158.501 61.2234H168.416C173.035 61.2234 177.471 59.3766 180.737 56.0826C184.002 52.7994 185.839 48.339 185.839 43.6951C185.839 39.0511 184.002 34.5907 180.737 31.2967C177.471 28.0135 173.035 26.1667 168.405 26.1667H144V43.4683H153.668V35.3143H167.761C169.952 35.3143 172.047 36.1891 173.593 37.7443C175.14 39.2995 176.01 41.4055 176.01 43.6087C176.01 45.8119 175.14 47.9178 173.593 49.473C172.047 51.0282 169.952 51.903 167.761 51.903H157.524C155.751 51.903 153.99 52.2486 152.357 52.9398C150.714 53.6202 149.231 54.6246 147.974 55.8882C146.718 57.1518 145.729 58.653 145.042 60.2946C144.354 61.9254 144 63.6966 144 65.4786Z" fill="#1B1340"/>
<path d="M187.332 79.324V58.2317C187.332 49.6241 192.327 42.7769 202.328 42.7769C203.928 42.7553 205.529 42.9281 207.097 43.3061V51.9785C205.958 51.9029 204.981 51.9029 204.519 51.9029C199.223 51.9029 196.946 54.3437 196.946 59.2901V79.324H187.332Z" fill="#1B1340"/>
<path d="M209.975 61.4395C209.975 50.8556 217.924 42.788 228.988 42.788C240.052 42.788 248.001 50.8556 248.001 61.4395C248.001 72.0235 240.052 80.1667 228.988 80.1667C217.924 80.1667 209.975 72.0127 209.975 61.4395ZM238.527 61.4395C238.527 55.424 234.51 51.158 228.988 51.158C223.456 51.158 219.45 55.4132 219.45 61.4395C219.45 67.5307 223.467 71.7211 228.988 71.7211C234.52 71.7211 238.527 67.5199 238.527 61.4395Z" fill="#1B1340"/>
<path d="M278.744 61.4395C278.744 50.8556 286.693 42.788 297.757 42.788C308.81 42.788 316.759 50.8556 316.759 61.4395C316.759 72.0235 308.81 80.1667 297.757 80.1667C286.693 80.1667 278.744 72.0127 278.744 61.4395ZM307.285 61.4395C307.285 55.424 303.268 51.158 297.746 51.158C292.225 51.158 288.208 55.4132 288.208 61.4395C288.208 67.5307 292.225 71.7211 297.746 71.7211C303.268 71.7211 307.285 67.5199 307.285 61.4395Z" fill="#1B1340"/>
<path d="M321.754 79.3243V58.9988C321.754 49.5596 327.738 42.7772 338.415 42.7772C349.017 42.7772 355 49.5488 355 58.9988V79.3243H345.461V59.7548C345.461 54.506 343.109 51.2228 338.415 51.2228C333.721 51.2228 331.368 54.4952 331.368 59.7548V79.3243H321.754Z" fill="#1B1340"/>
<path d="M275.865 51.2329H265.489V64.5601C265.489 69.2041 267.154 71.3317 271.923 71.3317C272.374 71.3317 273.513 71.3317 274.952 71.2561V79.0969C272.987 79.6261 271.247 79.9393 269.345 79.9393C261.321 79.9393 255.864 75.0685 255.864 65.8561V51.2329H249.419V43.5434H251.031C251.664 43.5434 252.298 43.4138 252.878 43.1762C253.469 42.9278 253.995 42.5714 254.446 42.1178C254.898 41.6642 255.252 41.135 255.499 40.541C255.746 39.947 255.864 39.3206 255.864 38.6834V31.4366H265.478V43.5434H275.855V51.2329H275.865Z" fill="#1B1340"/>
<path d="M435.148 44.1428C424.328 44.1428 416.308 52.0876 416.308 62.6807C416.308 73.8791 424.026 81.2942 433.332 81.2942C438.478 81.2942 442.564 79.0243 444.833 75.1654L445.439 80.4619H453.913V62.7564C453.913 51.2553 445.893 44.1428 435.148 44.1428ZM435.148 72.8955C429.776 72.8955 425.766 68.7339 425.766 62.6807C425.766 56.6275 429.852 52.466 435.148 52.466C440.369 52.466 444.455 56.4762 444.455 62.6807C444.455 69.6419 439.764 72.8955 435.148 72.8955Z" fill="#6D4AFF"/>
<path d="M472.478 81.2942C479.742 81.2942 485.947 77.1327 485.947 70.7768C485.947 57.1572 467.56 60.3351 467.56 54.8116C467.56 52.9956 469.149 51.6336 471.646 51.6336C474.219 51.6336 475.883 53.0713 476.262 55.1899H485.266C484.736 48.2287 479.44 44.0672 471.646 44.1428C463.626 44.1428 458.707 48.9097 458.707 54.8116C458.707 68.5826 476.867 65.0263 476.867 70.7768C476.867 72.5171 475.202 73.8034 472.478 73.8034C469.83 73.8034 467.409 72.5171 466.955 69.7932H457.799C458.329 76.5274 464.231 81.2942 472.478 81.2942Z" fill="#6D4AFF"/>
<path d="M504.29 81.2942C511.554 81.2942 517.758 77.1327 517.758 70.7768C517.758 57.1572 499.372 60.3351 499.372 54.8116C499.372 52.9956 500.961 51.6336 503.458 51.6336C506.03 51.6336 507.695 53.0713 508.073 55.1899H517.077C516.548 48.2287 511.251 44.0672 503.458 44.1428C495.437 44.1428 490.519 48.9097 490.519 54.8116C490.519 68.5826 508.679 65.0263 508.679 70.7768C508.679 72.5171 507.014 73.8034 504.29 73.8034C501.642 73.8034 499.221 72.5171 498.767 69.7932H489.611C490.141 76.5274 496.043 81.2942 504.29 81.2942Z" fill="#6D4AFF"/>
<path d="M399.026 26.5508H374.163V80.4636H384.012V67.0429C384.012 65.7392 384.526 64.4793 385.456 63.559C386.376 62.6388 387.634 62.1129 388.936 62.1129H399.026C403.732 62.1129 408.241 60.2395 411.557 56.9199C414.884 53.5894 416.744 49.0756 416.744 44.3756C416.755 42.0421 416.306 39.7195 415.42 37.5612C414.533 35.4029 413.231 33.4309 411.579 31.7766C409.926 30.1223 407.978 28.8076 405.822 27.9093C403.677 27.0109 401.368 26.5508 399.026 26.5508ZM406.785 44.2332C406.785 45.3397 406.566 46.4353 406.14 47.4542C405.713 48.4731 405.1 49.4043 404.312 50.1821C403.535 50.96 402.605 51.5845 401.587 52.0008C400.569 52.4281 399.475 52.6362 398.37 52.6362H383.968V35.8412H398.37C399.475 35.8412 400.569 36.0603 401.598 36.4876C402.616 36.9148 403.546 37.5393 404.323 38.3171C405.1 39.106 405.724 40.0372 406.14 41.0561C406.556 42.0859 406.774 43.1815 406.763 44.288L406.785 44.2332Z" fill="#6D4AFF"/>
<path d="M31.875 13.3907C39.2695 5.99633 42.9667 2.29912 47.23 0.913871C50.9802 -0.304624 55.0198 -0.304624 58.7699 0.913872C63.0333 2.29912 66.7305 5.99633 74.1249 13.3907L92.6092 31.8751C100.004 39.2695 103.701 42.9667 105.086 47.23C106.305 50.9802 106.305 55.0198 105.086 58.77C103.701 63.0333 100.004 66.7305 92.6092 74.1249L74.1249 92.6093C66.7305 100.004 63.0333 103.701 58.7699 105.086C55.0198 106.305 50.9802 106.305 47.23 105.086C42.9667 103.701 39.2695 100.004 31.875 92.6092L28.3998 88.7131C26.2968 86.3554 25.2453 85.1766 24.4956 83.8358C23.8306 82.6467 23.3428 81.3669 23.0474 80.0369C22.7145 78.5373 22.7144 76.9576 22.7144 73.7983L22.7144 32.2017C22.7144 29.0424 22.7144 27.4627 23.0474 25.9631C23.3427 24.6331 23.8306 23.3533 24.4955 22.1642C25.2452 20.8234 26.2967 19.6446 28.3998 17.2869L31.875 13.3907Z" fill="url(#paint0_radial_1_579)"/>
<path d="M31.875 13.3907C39.2695 5.99633 42.9667 2.29912 47.23 0.913871C50.9802 -0.304624 55.0198 -0.304624 58.7699 0.913872C63.0333 2.29912 66.7305 5.99633 74.1249 13.3907L92.6092 31.8751C100.004 39.2695 103.701 42.9667 105.086 47.23C106.305 50.9802 106.305 55.0198 105.086 58.77C103.701 63.0333 100.004 66.7305 92.6092 74.1249L74.1249 92.6093C66.7305 100.004 63.0333 103.701 58.7699 105.086C55.0198 106.305 50.9802 106.305 47.23 105.086C42.9667 103.701 39.2695 100.004 31.875 92.6092L28.3998 88.7131C26.2968 86.3554 25.2453 85.1766 24.4956 83.8358C23.8306 82.6467 23.3428 81.3669 23.0474 80.0369C22.7145 78.5373 22.7144 76.9576 22.7144 73.7983L22.7144 32.2017C22.7144 29.0424 22.7144 27.4627 23.0474 25.9631C23.3427 24.6331 23.8306 23.3533 24.4955 22.1642C25.2452 20.8234 26.2967 19.6446 28.3998 17.2869L31.875 13.3907Z" fill="url(#paint1_linear_1_579)"/>
<path d="M30.5548 14.71C34.252 11.0128 36.1006 9.16418 38.2323 8.47155C40.1073 7.86231 42.1271 7.86231 44.0022 8.47155C46.1339 9.16418 47.9825 11.0128 51.6797 14.71L79.4062 42.4365C83.1034 46.1337 84.952 47.9823 85.6446 50.114C86.2539 51.989 86.2539 54.0088 85.6446 55.8839C84.952 58.0156 83.1034 59.8642 79.4062 63.5614L51.6797 91.2879C47.9825 94.9851 46.1339 96.8337 44.0022 97.5263C42.1271 98.1356 40.1073 98.1356 38.2322 97.5263C36.1006 96.8337 34.252 94.9851 30.5548 91.2879L13.3907 74.1239C5.99633 66.7294 2.29912 63.0322 0.913871 58.7689C-0.304624 55.0187 -0.304624 50.9791 0.913872 47.229C2.29912 42.9656 5.99633 39.2684 13.3907 31.874L30.5548 14.71Z" fill="url(#paint2_radial_1_579)"/>
</g>
<defs>
<radialGradient id="paint0_radial_1_579" cx="0" cy="0" r="1" gradientUnits="userSpaceOnUse" gradientTransform="translate(31.9907 108.066) rotate(-58.142) scale(88.4841 138.371)">
<stop stop-color="#FFD580"/>
<stop offset="0.09375" stop-color="#F6C592"/>
<stop offset="0.205" stop-color="#EBB6A2"/>
<stop offset="0.324466" stop-color="#DFA5AF"/>
<stop offset="0.42875" stop-color="#D397BE"/>
<stop offset="0.53375" stop-color="#C486CB"/>
<stop offset="0.64875" stop-color="#B578D9"/>
<stop offset="0.77125" stop-color="#A166E5"/>
<stop offset="0.89125" stop-color="#8B57F2"/>
<stop offset="1" stop-color="#704CFF"/>
</radialGradient>
<linearGradient id="paint1_linear_1_579" x1="28.34" y1="-21.0474" x2="48.9538" y2="104.783" gradientUnits="userSpaceOnUse">
<stop stop-color="#6D4AFF"/>
<stop offset="0.392009" stop-color="#B39FFB" stop-opacity="0.978022"/>
<stop offset="1" stop-color="#FFE8DB" stop-opacity="0.8"/>
</linearGradient>
<radialGradient id="paint2_radial_1_579" cx="0" cy="0" r="1" gradientUnits="userSpaceOnUse" gradientTransform="translate(24.2183 97.291) rotate(-58.142) scale(71.1719 111.298)">
<stop stop-color="#FFD580"/>
<stop offset="0.09375" stop-color="#F6C592"/>
<stop offset="0.205" stop-color="#EBB6A2"/>
<stop offset="0.324466" stop-color="#DFA5AF"/>
<stop offset="0.42875" stop-color="#D397BE"/>
<stop offset="0.53375" stop-color="#C486CB"/>
<stop offset="0.64875" stop-color="#B578D9"/>
<stop offset="0.77125" stop-color="#A166E5"/>
<stop offset="0.89125" stop-color="#8B57F2"/>
<stop offset="1" stop-color="#704CFF"/>
</radialGradient>
<clipPath id="clip0_1_579">
<rect width="518" height="106" fill="white"/>
</clipPath>
</defs>
</svg>
